<svg width="39" height="40" viewBox="0 0 39 40" fill="none" xmlns="http://www.w3.org/2000/svg">
<path d="M19.2 0.800781C8.596 0.800781 0 9.39678 0 20.0008C0 30.6048 8.596 39.2008 19.2 39.2008C29.804 39.2008 38.4 30.6048 38.4 20.0008C38.4 9.39678 29.804 0.800781 19.2 0.800781ZM27.01 16.5288C27.018 16.6928 27.02 16.8568 27.02 17.0168C27.02 22.0168 23.218 27.7788 16.262 27.7788C14.2066 27.7822 12.1939 27.1919 10.466 26.0788C10.76 26.1148 11.062 26.1288 11.368 26.1288C13.14 26.1288 14.77 25.5268 16.064 24.5108C15.2754 24.4953 14.5113 24.2342 13.8782 23.7638C13.2451 23.2935 12.7745 22.6373 12.532 21.8868C13.0983 21.9945 13.6817 21.9719 14.238 21.8208C13.3821 21.6477 12.6124 21.1839 12.0594 20.5081C11.5064 19.8323 11.2042 18.986 11.204 18.1128V18.0668C11.714 18.3488 12.298 18.5208 12.918 18.5408C12.1156 18.0066 11.5476 17.1861 11.3301 16.247C11.1126 15.308 11.2621 14.3213 11.748 13.4888C12.6979 14.6568 13.8825 15.6123 15.2251 16.2934C16.5678 16.9745 18.0384 17.3661 19.542 17.4428C19.3508 16.6314 19.4331 15.7796 19.776 15.0198C20.1189 14.26 20.7032 13.6348 21.4381 13.2413C22.173 12.8479 23.0173 12.7082 23.8398 12.8441C24.6622 12.98 25.4167 13.3838 25.986 13.9928C26.8323 13.8253 27.644 13.5149 28.386 13.0748C28.1039 13.951 27.5133 14.6951 26.724 15.1688C27.4737 15.0785 28.2057 14.8769 28.896 14.5708C28.389 15.3306 27.7503 15.9937 27.01 16.5288Z" fill="white"/>
</svg>
